<svg width="48" height="49" viewBox="0 0 48 49" fill="none" xmlns="http://www.w3.org/2000/svg">
<circle cx="19.5" cy="19.5" r="15.75" stroke="#00474A" stroke-width="1.5"/>
<path d="M30 31L39 39.5M39 39.5V39.5C39.8284 38.6716 41.1716 38.6716 42 39.5L46.5 44L45 45.5L43.5 47L39 42.5C38.1716 41.6716 38.1716 40.3284 39 39.5V39.5Z" stroke="#00474A" stroke-width="1.5"/>
<path d="M11.5 22C11.5 22.8284 10.8284 23.5 10 23.5C9.17157 23.5 8.5 22.8284 8.5 22C8.5 21.1716 9.17157 20.5 10 20.5C10.8284 20.5 11.5 21.1716 11.5 22ZM17.5 17C17.5 17.8284 16.8284 18.5 16 18.5C15.1716 18.5 14.5 17.8284 14.5 17C14.5 16.1716 15.1716 15.5 16 15.5C16.8284 15.5 17.5 16.1716 17.5 17ZM21.5 22C21.5 22.8284 20.8284 23.5 20 23.5C19.1716 23.5 18.5 22.8284 18.5 22C18.5 21.1716 19.1716 20.5 20 20.5C20.8284 20.5 21.5 21.1716 21.5 22ZM29.5 19C29.5 19.8284 28.8284 20.5 28 20.5C27.1716 20.5 26.5 19.8284 26.5 19C26.5 18.1716 27.1716 17.5 28 17.5C28.8284 17.5 29.5 18.1716 29.5 19Z" stroke="#00474A"/>
<path d="M7 25.5L9 23M11 20.5L14.5714 18M31 17L29.5 18M18.75 20.75L17 18.3636M26.9836 20.1709L21.5 24.5L20.7667 23.5" stroke="#00474A" stroke-linecap="round"/>
</svg>
