<svg width="48" height="48" viewBox="0 0 48 48" fill="none" xmlns="http://www.w3.org/2000/svg">
<path d="M37.8667 6.73333H11.2667C11.2667 6.73333 11.676 12.7931 13.1333 15.8333C15.1715 20.0853 18.2667 19.5424 18.2667 24C18.2667 28.4575 15.1715 27.9147 13.1333 32.1667C11.676 35.2069 11.2667 41.2667 11.2667 41.2667H37.8667C37.8667 41.2667 37.924 35.6736 36.4667 32.6333C34.4285 28.3814 30.8667 28.4575 30.8667 24C30.8667 19.5424 34.4285 19.6186 36.4667 15.3667C37.924 12.3264 37.8667 6.73333 37.8667 6.73333Z" stroke="#262A2D" stroke-linecap="round"/>
<rect width="36" height="2" rx="1" transform="matrix(1 0 0 -1 6 44)" fill="#262A2D"/>
<rect width="36" height="2" rx="1" transform="matrix(1 0 0 -1 6 6)" fill="#262A2D"/>
<path d="M22.4717 23.6167H26.6617C26.7613 22.8503 27.1098 22.1552 27.5706 21.5219C28.1285 20.7549 28.8799 20.0396 29.6332 19.3595C29.8073 19.2023 29.9813 19.0472 30.1538 18.8934C30.7415 18.3693 31.3126 17.8601 31.8164 17.3341C32.467 16.6548 32.9576 15.9944 33.1948 15.3179C33.6596 13.9928 34.0628 12.354 34.3511 11.0358C34.4948 10.3789 34.609 9.80593 34.6873 9.39741C34.6915 9.37558 34.6956 9.35422 34.6996 9.33334H14.4338C14.4378 9.35422 14.4418 9.37558 14.446 9.39741C14.5243 9.80593 14.6385 10.3789 14.7822 11.0358C15.0705 12.354 15.4737 13.9928 15.9385 15.3179C16.1758 15.9944 16.6663 16.6548 17.3169 17.3341C17.8207 17.8601 18.3918 18.3693 18.9795 18.8934C19.1521 19.0472 19.326 19.2023 19.5001 19.3595C20.2534 20.0396 21.0048 20.7549 21.5628 21.5219C22.0235 22.1552 22.3721 22.8503 22.4717 23.6167Z" stroke="#262A2D"/>
</svg>
