<svg width="29" height="29" viewBox="0 0 29 29" fill="none" xmlns="http://www.w3.org/2000/svg">
<circle cx="12" cy="12" r="11.5" stroke="#262A2D"/>
<path d="M19.5 20L22.9091 23.2273M22.9091 23.2273V23.2273C23.4363 22.7001 24.291 22.7001 24.8182 23.2273L27.6818 26.0909L26.7273 27.0454L25.7727 28L22.9091 25.1364C22.3819 24.6092 22.3819 23.7544 22.9091 23.2273V23.2273Z" stroke="#262A2D"/>
<circle cx="14" cy="18" r="1" fill="#262A2D"/>
<circle cx="18" cy="18" r="1" fill="#262A2D"/>
<path d="M13.4236 16.5L12.5902 11.5H19.4098L18.5764 16.5H13.4236Z" stroke="#262A2D"/>
<circle cx="10" cy="6" r="2" fill="#262A2D"/>
<path d="M12 9.41604C11.3875 9.14845 10.7111 9 10 9C7.23858 9 5 11.2386 5 14V16H10" stroke="#262A2D"/>
</svg>
