<svg width="32" height="32" viewBox="0 0 32 32" fill="none" xmlns="http://www.w3.org/2000/svg">
<path d="M20 15.5C20 19.1844 19.446 22.4979 18.5667 24.8723C18.1263 26.0614 17.6138 26.9888 17.0701 27.6097C16.5255 28.2317 15.9935 28.5 15.5 28.5C15.0065 28.5 14.4745 28.2317 13.9299 27.6097C13.3862 26.9888 12.8737 26.0614 12.4333 24.8723C11.554 22.4979 11 19.1844 11 15.5C11 11.8156 11.554 8.50206 12.4333 6.12772C12.8737 4.93861 13.3862 4.01125 13.9299 3.39029C14.4745 2.76835 15.0065 2.5 15.5 2.5C15.9935 2.5 16.5255 2.76835 17.0701 3.39029C17.6138 4.01125 18.1263 4.93861 18.5667 6.12772C19.446 8.50206 20 11.8156 20 15.5Z" stroke="#FF6B35"/>
<path d="M15.5 11C19.1844 11 22.4979 11.554 24.8723 12.4333C26.0614 12.8737 26.9888 13.3862 27.6097 13.9299C28.2317 14.4745 28.5 15.0065 28.5 15.5C28.5 15.9935 28.2317 16.5255 27.6097 17.0701C26.9888 17.6138 26.0614 18.1263 24.8723 18.5667C22.4979 19.446 19.1844 20 15.5 20C11.8156 20 8.50206 19.446 6.12772 18.5667C4.93861 18.1263 4.01125 17.6138 3.39029 17.0701C2.76835 16.5255 2.5 15.9935 2.5 15.5C2.5 15.0065 2.76835 14.4745 3.39029 13.9299C4.01125 13.3862 4.93861 12.8737 6.12772 12.4333C8.50206 11.554 11.8156 11 15.5 11Z" stroke="#FF6B35"/>
<path d="M18.682 12.318C21.2873 14.9233 23.2386 17.658 24.2957 19.9588C24.8251 21.111 25.1185 22.1291 25.1731 22.9527C25.2277 23.7775 25.0414 24.3434 24.6924 24.6924C24.3434 25.0414 23.7775 25.2277 22.9527 25.1731C22.1291 25.1185 21.111 24.8251 19.9587 24.2957C17.658 23.2386 14.9233 21.2873 12.318 18.682C9.71272 16.0767 7.76143 13.342 6.70433 11.0413C6.17493 9.88901 5.88153 8.87091 5.82693 8.04734C5.77225 7.22247 5.95863 6.65659 6.30761 6.30761C6.65658 5.95864 7.22246 5.77226 8.04733 5.82694C8.8709 5.88154 9.88901 6.17493 11.0412 6.70434C13.342 7.76143 16.0767 9.71273 18.682 12.318Z" stroke="#FF6B35"/>
<path d="M18.682 18.682C16.0767 21.2873 13.342 23.2386 11.0412 24.2957C9.88901 24.8251 8.87091 25.1185 8.04734 25.1731C7.22247 25.2277 6.65659 25.0414 6.30761 24.6924C5.95864 24.3434 5.77226 23.7775 5.82694 22.9527C5.88154 22.1291 6.17493 21.111 6.70434 19.9588C7.76143 17.658 9.71273 14.9233 12.318 12.318C14.9233 9.71273 17.658 7.76143 19.9587 6.70434C21.111 6.17493 22.1291 5.88154 22.9527 5.82694C23.7775 5.77226 24.3434 5.95864 24.6924 6.30761C25.0414 6.65659 25.2277 7.22247 25.1731 8.04734C25.1185 8.87091 24.8251 9.88901 24.2957 11.0413C23.2386 13.342 21.2873 16.0767 18.682 18.682Z" stroke="#FF6B35"/>
</svg>
