<svg width="30" height="30" viewBox="0 0 30 30" fill="none" xmlns="http://www.w3.org/2000/svg">
<path d="M28.2611 10.5C28.7402 11.9123 29 13.4258 29 15C29 22.732 22.732 29 15 29C7.26801 29 1 22.732 1 15C1 7.26801 7.26801 1 15 1C16.9525 1 18.8116 1.39968 20.5 2.1217" stroke="#262A2D"/>
<circle cx="15" cy="15" r="8.5" stroke="#262A2D"/>
<path d="M25.4839 4.625L22.129 8.265M25.4839 4.625H28L24.6452 8.265H22.129M25.4839 4.625L24.6452 2L22.129 5.5V8.265M15 16H17.5161M15 16V13.375M15 16L22.129 8.265" stroke="#262A2D" stroke-linecap="round"/>
</svg>
