<svg width="32" height="32" viewBox="0 0 32 32" fill="none" xmlns="http://www.w3.org/2000/svg">
<rect x="3.89999" y="5.3" width="24.2" height="17.2" stroke="#00474A"/>
<rect x="2.5" y="2.5" width="27" height="3.2" rx="1.5" stroke="#00474A"/>
<rect x="2.5" y="22.1" width="27" height="3.2" rx="1.5" stroke="#00474A"/>
<path d="M23.9257 29.4581C24.013 29.7201 24.2961 29.8617 24.5581 29.7743C24.8201 29.687 24.9617 29.4039 24.8743 29.1419L23.9257 29.4581ZM22.5257 25.2581L23.9257 29.4581L24.8743 29.1419L23.4743 24.9419L22.5257 25.2581Z" fill="#00474A"/>
<path d="M6.67435 29.4581C6.58702 29.7201 6.30386 29.8617 6.04189 29.7743C5.77992 29.687 5.63834 29.4039 5.72566 29.1419L6.67435 29.4581ZM8.07435 25.2581L6.67435 29.4581L5.72566 29.1419L7.12566 24.9419L8.07435 25.2581Z" fill="#00474A"/>
<path d="M7.34604 14.2434C7.12907 13.996 6.9561 13.7862 6.83188 13.6308C6.9561 13.4754 7.12907 13.2655 7.34604 13.0182C7.83025 12.4661 8.53052 11.7306 9.39422 10.9963C11.1366 9.51503 13.4722 8.1 16 8.1C18.5278 8.1 20.8634 9.51503 22.6058 10.9963C23.4695 11.7306 24.1698 12.4661 24.654 13.0182C24.871 13.2655 25.0439 13.4754 25.1681 13.6308C25.0439 13.7862 24.871 13.996 24.654 14.2434C24.1698 14.7954 23.4695 15.5309 22.6058 16.2652C20.8634 17.7465 18.5278 19.1615 16 19.1615C13.4722 19.1615 11.1366 17.7465 9.39422 16.2652C8.53052 15.5309 7.83025 14.7954 7.34604 14.2434Z" stroke="#00474A"/>
<circle cx="16" cy="13.2" r="2.8" fill="#00474A"/>
</svg>
